<?xml version="1.0" encoding="UTF-8"?>
<svg version="1.1" xmlns="http://www.w3.org/2000/svg" width="512" height="512">
<path d="M0 0 C0.90040512 -0.00705963 1.80081024 -0.01411926 2.72850037 -0.02139282 C40.2726953 -0.24896892 40.2726953 -0.24896892 57.20703125 3.203125 C58.233125 3.40711914 59.25921875 3.61111328 60.31640625 3.82128906 C101.83708571 12.27055055 140.13015728 29.64264266 173.20703125 56.203125 C174.7075 57.39421875 174.7075 57.39421875 176.23828125 58.609375 C190.56517301 70.33137735 204.03771665 83.5324952 214.9609375 98.50830078 C216.25644327 100.27033077 217.58727189 102.00092885 218.92578125 103.73046875 C226.29508345 113.35808462 232.41119578 123.56522808 238.20703125 134.203125 C238.56893555 134.8636084 238.93083984 135.5240918 239.30371094 136.20458984 C256.95834737 168.81920767 268.2146408 206.77411266 268.41015625 243.99609375 C268.41721588 244.89649887 268.42427551 245.79690399 268.43154907 246.72459412 C268.65912517 284.26878905 268.65912517 284.26878905 265.20703125 301.203125 C265.00303711 302.22921875 264.79904297 303.2553125 264.58886719 304.3125 C256.1396057 345.83317946 238.76751359 384.12625103 212.20703125 417.203125 C211.41296875 418.2034375 210.61890625 419.20375 209.80078125 420.234375 C198.0787789 434.56126676 184.87766105 448.0338104 169.90185547 458.95703125 C168.13982548 460.25253702 166.4092274 461.58336564 164.6796875 462.921875 C155.05207163 470.2911772 144.84492817 476.40728953 134.20703125 482.203125 C133.54654785 482.5650293 132.88606445 482.92693359 132.20556641 483.29980469 C99.59094858 500.95444112 61.63604359 512.21073455 24.4140625 512.40625 C23.51365738 512.41330963 22.61325226 512.42036926 21.68556213 512.42764282 C-15.8586328 512.65521892 -15.8586328 512.65521892 -32.79296875 509.203125 C-34.33210938 508.89713379 -34.33210938 508.89713379 -35.90234375 508.58496094 C-77.42302321 500.13569945 -115.71609478 482.76360734 -148.79296875 456.203125 C-149.79328125 455.4090625 -150.79359375 454.615 -151.82421875 453.796875 C-166.15111051 442.07487265 -179.62365415 428.8737548 -190.546875 413.89794922 C-191.84238077 412.13591923 -193.17320939 410.40532115 -194.51171875 408.67578125 C-201.88102095 399.04816538 -207.99713328 388.84102192 -213.79296875 378.203125 C-214.15487305 377.5426416 -214.51677734 376.8821582 -214.88964844 376.20166016 C-232.54428487 343.58704233 -243.8005783 305.63213734 -243.99609375 268.41015625 C-244.00315338 267.50975113 -244.01021301 266.60934601 -244.01748657 265.68165588 C-244.24506267 228.13746095 -244.24506267 228.13746095 -240.79296875 211.203125 C-240.58897461 210.17703125 -240.38498047 209.1509375 -240.17480469 208.09375 C-231.7255432 166.57307054 -214.35345109 128.27999897 -187.79296875 95.203125 C-186.99890625 94.2028125 -186.20484375 93.2025 -185.38671875 92.171875 C-173.6647164 77.84498324 -160.46359855 64.3724396 -145.48779297 53.44921875 C-143.72576298 52.15371298 -141.9951649 50.82288436 -140.265625 49.484375 C-130.63800913 42.1150728 -120.43086567 35.99896047 -109.79296875 30.203125 C-109.13248535 29.8412207 -108.47200195 29.47931641 -107.79150391 29.10644531 C-75.17688608 11.45180888 -37.22198109 0.19551545 0 0 Z " fill="#FEFEFE" transform="translate(243.79296875,-0.203125)"/>
<path d="M0 0 C0.66 0 1.32 0 2 0 C2 0.66 2 1.32 2 2 C3.7325 1.8453125 3.7325 1.8453125 5.5 1.6875 C10.63552715 1.7057759 14.26976617 3.51071429 18 7 C21.01188956 13.02377911 20.56842866 20.39619645 20 27 C18.984375 29.8984375 18.984375 29.8984375 18 32 C16.68 32 15.36 32 14 32 C14 31.34 14 30.68 14 30 C14.66 30 15.32 30 16 30 C14.73636527 28.03701399 13.4638372 26.07975066 12.1875 24.125 C11.47980469 23.03445312 10.77210938 21.94390625 10.04296875 20.8203125 C7.621272 17.47716708 6.07494117 16.20155147 2 15.4375 C-4.66821083 15.59356451 -10.75323957 21.14469563 -15.66796875 25.203125 C-18 27 -18 27 -20.6875 27.5 C-21.8321875 27.7475 -21.8321875 27.7475 -23 28 C-24.14209817 29.78228936 -24.14209817 29.78228936 -25 32 C-25.680625 32.763125 -26.36125 33.52625 -27.0625 34.3125 C-29.2813206 36.89570464 -29.2813206 36.89570464 -29.2421875 40.29296875 C-30.24247817 45.1861432 -32.34528471 46.88563218 -36.0625 50 C-36.65305176 50.51836426 -37.24360352 51.03672852 -37.85205078 51.57080078 C-39.55585218 53.06203489 -41.27662303 54.53149232 -43 56 C-44.45944697 57.29040825 -45.91801231 58.58181566 -47.375 59.875 C-48.58101115 60.91935434 -49.7892806 61.96110759 -51 63 C-51.67289062 63.57878906 -52.34578125 64.15757812 -53.0390625 64.75390625 C-54.69053607 66.17180487 -56.34493329 67.58629719 -58 69 C-58.99 68.505 -58.99 68.505 -60 68 C-60.268125 68.680625 -60.53625 69.36125 -60.8125 70.0625 C-61.204375 71.031875 -61.59625 72.00125 -62 73 C-62.37125 74.0725 -62.7425 75.145 -63.125 76.25 C-64.52717721 79.6239889 -66.5855836 81.77209819 -69.125 84.375 C-72.83067811 88.32191575 -73.48359609 90.5378502 -73.62109375 95.80859375 C-74.3819069 100.20876053 -77.90100457 103.00512102 -81 106 C-87.85160986 112.58506528 -87.85160986 112.58506528 -91.9375 121.0625 C-93 124 -93 124 -94.9375 125.875 C-98.84775876 129.90375145 -99.87100333 135.08575454 -100.75 140.5 C-101.50449471 144.36513079 -102.8708076 146.21262456 -105.625 149 C-108.32363582 151.84635062 -109.60422858 153.7339861 -109.9375 157.6875 C-109.68799382 160.26276022 -109.28989524 161.61995441 -107.71875 163.6796875 C-101.40255008 168.58305323 -93.54646628 167.44524151 -86 167 C-84.7728125 166.95488281 -83.545625 166.90976562 -82.28125 166.86328125 C-76.31867251 166.88723734 -76.31867251 166.88723734 -71.1328125 164.51171875 C-67.56599926 161.98359288 -63.18759162 162.24576598 -58.93164062 162.00390625 C-53.56890396 161.53146272 -51.49874281 159.96400116 -48 156 C-45.68925595 155.25881795 -43.35188447 154.59793673 -41 154 C-34.63736399 151.66703346 -30.27911467 147.70852751 -25.39453125 143.1015625 C-23.32496493 141.28520576 -21.57072816 140.07953421 -19.125 138.875 C-14.03429898 135.82057939 -12.58021616 131.77118618 -10.8125 126.375 C-9.98941832 122.75906852 -9.81717079 119.19822004 -9.625 115.5 C-9.20186251 108.87597486 -7.82770004 103.82770004 -3 99 C-2.84790841 97.06668191 -2.77813669 95.12658716 -2.75 93.1875 C-2.36009263 86.62405922 -0.42617194 82.04431038 2.5390625 76.24609375 C4.01891345 72.95797574 4.65728111 70.10592812 5.25 66.5625 C8.03656917 53.13188462 19.87129753 41.42318791 30.30859375 33.17578125 C36.1981613 29.34388792 41.24859048 29.72543484 48 31 C47.77943068 34.08617723 47.51841986 37.16764532 47.25 40.25 C47.188125 41.12269531 47.12625 41.99539062 47.0625 42.89453125 C46.46901638 49.37339412 46.46901638 49.37339412 44.046875 52.609375 C42 54 42 54 40 54 C40.0928125 54.680625 40.185625 55.36125 40.28125 56.0625 C41.31012824 69.87886498 32.79605768 80.87126359 25.66796875 92.0390625 C24.09716189 94.82752059 23.24661147 97.1589334 22.5 100.25 C21.24874361 105.35380897 18.45532047 108.00763501 14.8515625 111.703125 C12.31764995 114.84645955 11.69414214 117.89784516 10.78125 121.765625 C9.49706628 125.43839043 7.13555594 126.8187437 4 129 C2.38404918 132.23190164 2.55726649 135.49554604 3 139 C3.74177974 141.04307334 4.66850273 142.82693114 5.73828125 144.71875 C7 147 7 147 8.35546875 150.03125 C11.30244529 156.54146092 13.25085644 160.30034258 20 163 C20 162.34 20 161.68 20 161 C22.375 160.875 22.375 160.875 25 161 C25.66 161.66 26.32 162.32 27 163 C38.72456445 164.24589891 49.29345064 163.38399907 58.79296875 155.7578125 C60.64965276 154.07658382 62.47796298 152.3635157 64.27734375 150.62109375 C83.61997019 132 83.61997019 132 88 132 C87.59241202 137.65617712 85.95929418 141.15570442 82.5625 145.5625 C80.189502 148.69275803 78.17416669 151.46131343 76.94921875 155.25 C75.85596063 158.41729924 75.17699133 158.9796768 72.25 160.4375 C67.80017483 162.93649602 65.14730766 166.05649844 62 170 C57.39591287 174.85986975 57.39591287 174.85986975 53.9765625 175.203125 C47.56532798 175.33092369 47.56532798 175.33092369 44.4375 173.5 C43.963125 173.005 43.48875 172.51 43 172 C42.48695313 172.77988281 41.97390625 173.55976563 41.4453125 174.36328125 C38.40689016 177.63953537 36.18317577 178.1576751 31.875 179.1875 C26.93927724 180.19251111 26.93927724 180.19251111 23 183 C15.87346357 184.23939764 9.81446617 180.93569716 4 177 C1.44973295 174.24323359 -0.28212199 171.32633703 -2 168 C-6.5652559 159.03080511 -6.5652559 159.03080511 -15 153.9375 C-18.24188807 153.66768166 -18.24188807 153.66768166 -20.625 156.5 C-21.40875 157.325 -22.1925 158.15 -23 159 C-25.3125 158.8125 -25.3125 158.8125 -27 158 C-27.165 158.721875 -27.33 159.44375 -27.5 160.1875 C-30.10444103 165.07082693 -34.82506839 167.12702745 -39.83203125 169.13671875 C-43.329185 170.08970393 -46.32040075 170.13299359 -49.9375 170.125 C-54.90597716 170.29627824 -54.90597716 170.29627824 -59.04296875 172.69921875 C-60.10754723 174.12128531 -61.15816873 175.55389631 -62.1953125 176.99609375 C-68.07197144 183.52147478 -79.40478021 183.65790585 -87.65234375 184.5078125 C-90.7653983 184.9655078 -93.13748445 185.74733502 -96 187 C-98.625 187.4375 -98.625 187.4375 -101 187 C-101.680625 185.8553125 -101.680625 185.8553125 -102.375 184.6875 C-103.8347796 181.6819207 -103.8347796 181.6819207 -107.375 180.5625 C-114.33317972 177.5632846 -117.10911484 171.68658589 -119.99609375 164.98046875 C-121.6725822 160.00318982 -121.89743 155.21824852 -122 150 C-122.0928125 148.24042969 -122.0928125 148.24042969 -122.1875 146.4453125 C-122.43797234 139.16596005 -122.09249119 133.20032946 -118 127 C-117.22076172 126.26330078 -117.22076172 126.26330078 -116.42578125 125.51171875 C-114.28887 123.24600737 -114.07984634 121.06111585 -113.8515625 118.02734375 C-113.07680026 110.88083001 -108.67522965 107.22546304 -103.703125 102.57421875 C-98.95212401 98.04978284 -95.55546534 93.48110558 -94 87 C-94.01675781 86.29746094 -94.03351563 85.59492188 -94.05078125 84.87109375 C-94.0640343 82.26024278 -93.94523104 80.44823355 -93 78 C-89.62243736 75.10733497 -85.88849891 73.1229994 -82 71 C-80.66412646 70.00339593 -79.33018321 69.00418645 -78 68 C-75.75 67.3125 -75.75 67.3125 -74 67 C-74.144375 66.175 -74.28875 65.35 -74.4375 64.5 C-73.86954924 59.95639388 -72.01529543 58.32736797 -68.9375 55.08203125 C-67.07444457 53.0799979 -65.47615809 51.02660142 -63.875 48.8125 C-61.49226888 45.57426702 -58.9250541 42.77110388 -56 40 C-55.34 39.2575 -54.68 38.515 -54 37.75 C-52 36 -52 36 -49.5625 35.625 C-46.30296272 34.82999091 -45.48639938 33.16038156 -43.46069336 30.62646484 C-40.54408114 27.37885151 -36.78800853 25.18436463 -33.171875 22.7890625 C-29.02864863 19.96086015 -26.23130585 16.87859446 -23 13 C-19.94921875 10.76953125 -19.94921875 10.76953125 -16.6875 8.8125 C-15.83418091 8.29888916 -15.83418091 8.29888916 -14.96362305 7.77490234 C-10.75709929 5.29907287 -6.60410501 3.56365831 -2 2 C-1.34 1.34 -0.68 0.68 0 0 Z " fill="#030303" transform="translate(274,151)"/>
<path d="M0 0 C2.875 -0.125 2.875 -0.125 6 0 C6.66 0.66 7.32 1.32 8 2 C7.8125 4.0625 7.8125 4.0625 7 6 C6.01 6.33 5.02 6.66 4 7 C2.02 3.535 2.02 3.535 0 0 Z " fill="#E4E4E4" transform="translate(290,225)"/>
</svg>
